<svg width="446" height="495" viewBox="0 0 446 495" fill="none" xmlns="http://www.w3.org/2000/svg">
<path d="M58.1959 116.795C62.8442 108.173 69.5508 100.822 77.7282 95.392L214.941 0L74.3491 231.448C74.3491 231.448 62.0657 210.781 57.2735 200.323C51.3044 187.175 48.2934 172.886 48.4524 158.457C48.6115 144.029 51.9375 129.809 58.1959 116.795ZM1.56635 276.454C3.11579 298.588 9.39685 320.136 19.99 339.656C30.5816 359.177 45.2415 376.218 62.9866 389.641L214.756 495C214.756 495 119.799 358.761 39.7086 223.194C31.5994 208.871 26.1484 193.212 23.616 176.965C22.4951 169.608 22.4951 162.125 23.616 154.768C21.5273 158.621 17.4742 166.509 17.4742 166.509C9.35293 182.998 3.8216 200.63 1.0741 218.791C-0.507142 237.987 -0.342055 257.286 1.56635 276.454ZM388.514 294.798C383.599 284.342 371.439 263.673 371.439 263.673L231.094 495L368.306 399.669C376.482 394.238 383.19 386.889 387.839 378.267C394.097 365.252 397.422 351.032 397.582 336.605C397.741 322.176 394.73 307.886 388.76 294.737L388.514 294.798ZM444.221 218.607C442.672 196.474 436.391 174.925 425.799 155.405C415.206 135.885 400.546 118.842 382.801 105.421L231.277 0C231.277 0 326.172 136.239 406.326 271.806C414.412 286.134 419.842 301.793 422.357 318.035C423.477 325.392 423.477 332.875 422.357 340.232C424.445 336.379 428.498 328.491 428.498 328.491C436.62 312.002 442.151 294.37 444.897 276.209C446.499 257.014 446.355 237.715 444.468 218.546L444.221 218.607Z" fill="white"/>
</svg>
