<svg width="196" height="111" viewBox="0 0 196 111" fill="none" xmlns="http://www.w3.org/2000/svg">
<rect x="52" width="33.6445" height="33.6445" rx="1" fill="white" fill-opacity="0.3"/>
<path d="M68.822 5.38312L79.8941 24.5605H57.75L68.822 5.38312Z" fill="#121212"/>
<path d="M107.392 9.45455L104.977 24H101.028L103.443 9.45455H107.392ZM111.877 17.8636L110.854 24H106.934L108.752 13.0909H112.474L112.133 15.1648H112.246C112.592 14.4687 113.096 13.9266 113.759 13.5384C114.427 13.1454 115.163 12.9489 115.968 12.9489C116.74 12.9489 117.381 13.1241 117.893 13.4744C118.404 13.8248 118.766 14.3078 118.979 14.9233C119.192 15.5388 119.23 16.2443 119.093 17.0398L117.928 24H114.008L115.031 17.8636C115.121 17.3239 115.054 16.9001 114.832 16.5923C114.614 16.2846 114.254 16.1307 113.752 16.1307C113.435 16.1307 113.144 16.2017 112.879 16.3438C112.618 16.4811 112.4 16.6799 112.225 16.9403C112.055 17.196 111.939 17.5038 111.877 17.8636ZM125.062 24.1989C123.879 24.1989 122.903 23.9645 122.136 23.4957C121.369 23.0223 120.832 22.3641 120.524 21.5213C120.216 20.6738 120.157 19.6913 120.347 18.5739C120.527 17.4564 120.91 16.4763 121.497 15.6335C122.089 14.786 122.847 14.1278 123.77 13.6591C124.698 13.1856 125.754 12.9489 126.938 12.9489C128.008 12.9489 128.9 13.143 129.615 13.5312C130.335 13.9148 130.848 14.4593 131.156 15.1648C131.469 15.8655 131.549 16.6894 131.398 17.6364H127.761C127.804 17.0682 127.712 16.6326 127.484 16.3295C127.262 16.0265 126.938 15.875 126.511 15.875C126.161 15.875 125.839 15.9744 125.545 16.1733C125.257 16.3674 125.008 16.6634 124.8 17.0611C124.596 17.4541 124.447 17.9489 124.352 18.5455C124.258 19.142 124.246 19.6392 124.317 20.0369C124.393 20.4299 124.539 20.7259 124.757 20.9247C124.98 21.1188 125.261 21.2159 125.602 21.2159C125.896 21.2159 126.166 21.1496 126.412 21.017C126.663 20.8797 126.878 20.6809 127.058 20.4205C127.243 20.1553 127.383 19.8333 127.477 19.4545H131.114C130.934 20.4205 130.571 21.2585 130.027 21.9688C129.482 22.679 128.789 23.2282 127.946 23.6165C127.103 24.0047 126.142 24.1989 125.062 24.1989ZM131.964 24L133.782 13.0909H137.589L137.248 15.1648H137.362C137.689 14.3977 138.098 13.8366 138.591 13.4815C139.083 13.1264 139.62 12.9489 140.203 12.9489C140.373 12.9489 140.537 12.9631 140.693 12.9915C140.854 13.0152 141.012 13.0483 141.169 13.0909L140.6 16.4432C140.416 16.3722 140.186 16.3224 139.912 16.294C139.637 16.2609 139.393 16.2443 139.18 16.2443C138.801 16.2443 138.446 16.3319 138.115 16.5071C137.788 16.6776 137.509 16.919 137.277 17.2315C137.049 17.5393 136.898 17.9015 136.822 18.3182L135.885 24H131.964ZM145.21 24.1989C144.045 24.1989 143.079 23.9763 142.312 23.5312C141.545 23.0814 141.005 22.4375 140.693 21.5994C140.38 20.7566 140.324 19.7481 140.522 18.5739C140.712 17.447 141.102 16.4621 141.694 15.6193C142.291 14.7765 143.041 14.1207 143.946 13.652C144.855 13.1832 145.873 12.9489 147 12.9489C147.824 12.9489 148.546 13.0767 149.166 13.3324C149.791 13.5881 150.3 13.9598 150.693 14.4474C151.086 14.9351 151.351 15.5246 151.488 16.2159C151.63 16.9025 151.63 17.679 151.488 18.5455L151.346 19.4545H141.602L141.943 17.2955H148.079C148.127 16.983 148.096 16.7083 147.987 16.4716C147.883 16.2301 147.715 16.0431 147.483 15.9105C147.255 15.7732 146.981 15.7045 146.659 15.7045C146.337 15.7045 146.034 15.7732 145.75 15.9105C145.47 16.0478 145.231 16.2396 145.032 16.4858C144.838 16.732 144.708 17.0208 144.642 17.3523L144.216 19.625C144.159 19.9754 144.18 20.2879 144.279 20.5625C144.379 20.8371 144.552 21.0526 144.798 21.2088C145.044 21.3651 145.361 21.4432 145.75 21.4432C146.015 21.4432 146.266 21.4077 146.502 21.3366C146.744 21.2609 146.957 21.152 147.142 21.0099C147.331 20.8632 147.483 20.6856 147.596 20.4773H151.176C150.92 21.2348 150.515 21.893 149.961 22.4517C149.412 23.0057 148.735 23.4366 147.93 23.7443C147.13 24.0473 146.223 24.1989 145.21 24.1989ZM155.19 24.1705C154.499 24.1705 153.905 24.0568 153.408 23.8295C152.915 23.5975 152.555 23.2472 152.328 22.7784C152.106 22.3049 152.056 21.7083 152.179 20.9886C152.278 20.392 152.465 19.883 152.74 19.4616C153.015 19.0402 153.356 18.6946 153.763 18.4247C154.17 18.1548 154.627 17.9489 155.134 17.8068C155.645 17.66 156.185 17.5653 156.753 17.5227C157.368 17.4754 157.868 17.4162 158.251 17.3452C158.635 17.2741 158.921 17.1771 159.111 17.054C159.3 16.9309 159.414 16.7652 159.452 16.5568V16.5284C159.494 16.2443 159.419 16.0265 159.224 15.875C159.035 15.7235 158.77 15.6477 158.429 15.6477C158.06 15.6477 157.74 15.7282 157.47 15.8892C157.205 16.0502 157.023 16.3011 156.923 16.642H153.315C153.467 15.9792 153.777 15.3684 154.246 14.8097C154.719 14.2462 155.347 13.7964 156.128 13.4602C156.914 13.1193 157.851 12.9489 158.94 12.9489C159.717 12.9489 160.399 13.0412 160.986 13.2259C161.573 13.4058 162.058 13.6591 162.442 13.9858C162.83 14.3078 163.102 14.6866 163.259 15.1222C163.42 15.553 163.457 16.0218 163.372 16.5284L162.122 24H158.457L158.713 22.4659H158.628C158.344 22.8731 158.024 23.2022 157.669 23.4531C157.319 23.7041 156.935 23.8864 156.518 24C156.107 24.1136 155.664 24.1705 155.19 24.1705ZM156.895 21.6989C157.188 21.6989 157.477 21.6373 157.761 21.5142C158.045 21.3911 158.289 21.2135 158.493 20.9815C158.696 20.7495 158.827 20.4678 158.884 20.1364L159.026 19.2273C158.921 19.2699 158.805 19.3101 158.678 19.348C158.554 19.3812 158.424 19.4143 158.287 19.4474C158.154 19.4806 158.012 19.5114 157.861 19.5398C157.714 19.5682 157.562 19.5966 157.406 19.625C157.094 19.6723 156.831 19.7505 156.618 19.8594C156.405 19.9635 156.239 20.0938 156.121 20.25C156.002 20.4015 155.929 20.572 155.901 20.7614C155.858 21.0597 155.927 21.2917 156.107 21.4574C156.291 21.6184 156.554 21.6989 156.895 21.6989ZM175.16 16.642H171.637C171.656 16.4148 171.616 16.2206 171.517 16.0597C171.417 15.8987 171.278 15.7756 171.098 15.6903C170.922 15.6051 170.724 15.5625 170.501 15.5625C170.113 15.5625 169.76 15.6501 169.443 15.8253C169.126 15.9957 168.948 16.2206 168.91 16.5C168.886 16.6089 168.922 16.7107 169.017 16.8054C169.111 16.9001 169.36 16.9877 169.762 17.0682L171.922 17.4659C173.001 17.6648 173.787 18.027 174.279 18.5526C174.777 19.0734 174.957 19.7623 174.819 20.6193C174.691 21.3627 174.365 22.0019 173.839 22.5369C173.314 23.072 172.646 23.4839 171.836 23.7727C171.031 24.0568 170.141 24.1989 169.166 24.1989C167.447 24.1989 166.159 23.8556 165.302 23.169C164.45 22.4825 164.062 21.5852 164.137 20.4773H167.944C167.954 20.8324 168.072 21.0999 168.299 21.2798C168.531 21.455 168.839 21.5473 169.223 21.5568C169.639 21.571 170.004 21.4882 170.316 21.3082C170.629 21.1236 170.804 20.8939 170.842 20.6193C170.856 20.4631 170.788 20.3447 170.636 20.2642C170.489 20.1837 170.208 20.1032 169.791 20.0227L167.916 19.6818C166.836 19.4877 166.05 19.0994 165.558 18.517C165.065 17.9299 164.895 17.1818 165.047 16.2727C165.17 15.5483 165.463 14.9399 165.927 14.4474C166.396 13.955 167.011 13.5833 167.774 13.3324C168.536 13.0767 169.417 12.9489 170.416 12.9489C172.049 12.9489 173.285 13.2779 174.123 13.9361C174.966 14.5895 175.312 15.4915 175.16 16.642ZM180.952 24.1989C179.787 24.1989 178.821 23.9763 178.054 23.5312C177.287 23.0814 176.748 22.4375 176.435 21.5994C176.123 20.7566 176.066 19.7481 176.265 18.5739C176.454 17.447 176.845 16.4621 177.436 15.6193C178.033 14.7765 178.783 14.1207 179.688 13.652C180.597 13.1832 181.615 12.9489 182.742 12.9489C183.566 12.9489 184.288 13.0767 184.908 13.3324C185.533 13.5881 186.042 13.9598 186.435 14.4474C186.828 14.9351 187.093 15.5246 187.23 16.2159C187.373 16.9025 187.373 17.679 187.23 18.5455L187.088 19.4545H177.344L177.685 17.2955H183.821C183.869 16.983 183.838 16.7083 183.729 16.4716C183.625 16.2301 183.457 16.0431 183.225 15.9105C182.998 15.7732 182.723 15.7045 182.401 15.7045C182.079 15.7045 181.776 15.7732 181.492 15.9105C181.212 16.0478 180.973 16.2396 180.775 16.4858C180.58 16.732 180.45 17.0208 180.384 17.3523L179.958 19.625C179.901 19.9754 179.922 20.2879 180.022 20.5625C180.121 20.8371 180.294 21.0526 180.54 21.2088C180.786 21.3651 181.104 21.4432 181.492 21.4432C181.757 21.4432 182.008 21.4077 182.245 21.3366C182.486 21.2609 182.699 21.152 182.884 21.0099C183.073 20.8632 183.225 20.6856 183.338 20.4773H186.918C186.662 21.2348 186.257 21.893 185.703 22.4517C185.154 23.0057 184.477 23.4366 183.672 23.7443C182.872 24.0473 181.965 24.1989 180.952 24.1989Z" fill="white" fill-opacity="0.3"/>
<rect x="85.6455" y="71.9992" width="33.6445" height="33.6445" rx="1" transform="rotate(-180 85.6455 71.9992)" fill="white" fill-opacity="0.3"/>
<path d="M68.8235 66.6161L57.7514 47.4387L79.8955 47.4387L68.8235 66.6161Z" fill="#121212"/>
<path d="M106.711 62H101.029L103.444 47.4545H108.899C110.395 47.4545 111.645 47.7552 112.649 48.3565C113.652 48.9579 114.365 49.8172 114.786 50.9347C115.208 52.0521 115.291 53.3826 115.035 54.9261C114.789 56.4129 114.289 57.6842 113.536 58.7401C112.788 59.7959 111.832 60.6032 110.667 61.1619C109.507 61.7206 108.188 62 106.711 62ZM105.532 58.6477H106.967C107.687 58.6477 108.328 58.5223 108.892 58.2713C109.46 58.0156 109.933 57.5895 110.312 56.9929C110.696 56.3916 110.973 55.5701 111.143 54.5284C111.304 53.5436 111.299 52.7836 111.129 52.2486C110.958 51.7088 110.634 51.3348 110.156 51.1264C109.678 50.9134 109.06 50.8068 108.302 50.8068H106.839L105.532 58.6477ZM120.953 62.1989C119.788 62.1989 118.822 61.9763 118.055 61.5312C117.288 61.0814 116.748 60.4375 116.436 59.5994C116.123 58.7566 116.067 57.7481 116.266 56.5739C116.455 55.447 116.846 54.4621 117.437 53.6193C118.034 52.7765 118.784 52.1207 119.689 51.652C120.598 51.1832 121.616 50.9489 122.743 50.9489C123.567 50.9489 124.289 51.0767 124.909 51.3324C125.534 51.5881 126.043 51.9598 126.436 52.4474C126.829 52.9351 127.094 53.5246 127.231 54.2159C127.373 54.9025 127.373 55.679 127.231 56.5455L127.089 57.4545H117.345L117.686 55.2955H123.822C123.87 54.983 123.839 54.7083 123.73 54.4716C123.626 54.2301 123.458 54.0431 123.226 53.9105C122.998 53.7732 122.724 53.7045 122.402 53.7045C122.08 53.7045 121.777 53.7732 121.493 53.9105C121.213 54.0478 120.974 54.2396 120.775 54.4858C120.581 54.732 120.451 55.0208 120.385 55.3523L119.959 57.625C119.902 57.9754 119.923 58.2879 120.023 58.5625C120.122 58.8371 120.295 59.0526 120.541 59.2088C120.787 59.3651 121.105 59.4432 121.493 59.4432C121.758 59.4432 122.009 59.4077 122.246 59.3366C122.487 59.2609 122.7 59.152 122.885 59.0099C123.074 58.8632 123.226 58.6856 123.339 58.4773H126.919C126.663 59.2348 126.258 59.893 125.704 60.4517C125.155 61.0057 124.478 61.4366 123.673 61.7443C122.873 62.0473 121.966 62.1989 120.953 62.1989ZM133.149 62.1989C131.966 62.1989 130.99 61.9645 130.223 61.4957C129.456 61.0223 128.919 60.3641 128.611 59.5213C128.303 58.6738 128.244 57.6913 128.434 56.5739C128.613 55.4564 128.997 54.4763 129.584 53.6335C130.176 52.786 130.934 52.1278 131.857 51.6591C132.785 51.1856 133.841 50.9489 135.024 50.9489C136.094 50.9489 136.987 51.143 137.702 51.5312C138.422 51.9148 138.935 52.4593 139.243 53.1648C139.556 53.8655 139.636 54.6894 139.485 55.6364H135.848C135.891 55.0682 135.799 54.6326 135.571 54.3295C135.349 54.0265 135.024 53.875 134.598 53.875C134.248 53.875 133.926 53.9744 133.632 54.1733C133.344 54.3674 133.095 54.6634 132.887 55.0611C132.683 55.4541 132.534 55.9489 132.439 56.5455C132.344 57.142 132.333 57.6392 132.404 58.0369C132.479 58.4299 132.626 58.7259 132.844 58.9247C133.067 59.1188 133.348 59.2159 133.689 59.2159C133.983 59.2159 134.253 59.1496 134.499 59.017C134.75 58.8797 134.965 58.6809 135.145 58.4205C135.33 58.1553 135.469 57.8333 135.564 57.4545H139.201C139.021 58.4205 138.658 59.2585 138.114 59.9688C137.569 60.679 136.876 61.2282 136.033 61.6165C135.19 62.0047 134.229 62.1989 133.149 62.1989ZM140.051 62L141.869 51.0909H145.676L145.335 53.1648H145.449C145.775 52.3977 146.185 51.8366 146.677 51.4815C147.17 51.1264 147.707 50.9489 148.29 50.9489C148.46 50.9489 148.623 50.9631 148.78 50.9915C148.941 51.0152 149.099 51.0483 149.256 51.0909L148.687 54.4432C148.503 54.3722 148.273 54.3224 147.998 54.294C147.724 54.2609 147.48 54.2443 147.267 54.2443C146.888 54.2443 146.533 54.3319 146.202 54.5071C145.875 54.6776 145.596 54.919 145.364 55.2315C145.136 55.5393 144.985 55.9015 144.909 56.3182L143.972 62H140.051ZM153.297 62.1989C152.132 62.1989 151.166 61.9763 150.399 61.5312C149.632 61.0814 149.092 60.4375 148.78 59.5994C148.467 58.7566 148.41 57.7481 148.609 56.5739C148.799 55.447 149.189 54.4621 149.781 53.6193C150.378 52.7765 151.128 52.1207 152.033 51.652C152.942 51.1832 153.96 50.9489 155.087 50.9489C155.91 50.9489 156.632 51.0767 157.253 51.3324C157.878 51.5881 158.387 51.9598 158.78 52.4474C159.173 52.9351 159.438 53.5246 159.575 54.2159C159.717 54.9025 159.717 55.679 159.575 56.5455L159.433 57.4545H149.689L150.03 55.2955H156.166C156.213 54.983 156.183 54.7083 156.074 54.4716C155.97 54.2301 155.802 54.0431 155.57 53.9105C155.342 53.7732 155.068 53.7045 154.746 53.7045C154.424 53.7045 154.121 53.7732 153.837 53.9105C153.557 54.0478 153.318 54.2396 153.119 54.4858C152.925 54.732 152.795 55.0208 152.729 55.3523L152.302 57.625C152.246 57.9754 152.267 58.2879 152.366 58.5625C152.466 58.8371 152.639 59.0526 152.885 59.2088C153.131 59.3651 153.448 59.4432 153.837 59.4432C154.102 59.4432 154.353 59.4077 154.589 59.3366C154.831 59.2609 155.044 59.152 155.229 59.0099C155.418 58.8632 155.57 58.6856 155.683 58.4773H159.263C159.007 59.2348 158.602 59.893 158.048 60.4517C157.499 61.0057 156.822 61.4366 156.017 61.7443C155.217 62.0473 154.31 62.1989 153.297 62.1989ZM163.277 62.1705C162.586 62.1705 161.992 62.0568 161.495 61.8295C161.002 61.5975 160.642 61.2472 160.415 60.7784C160.193 60.3049 160.143 59.7083 160.266 58.9886C160.365 58.392 160.552 57.883 160.827 57.4616C161.102 57.0402 161.443 56.6946 161.85 56.4247C162.257 56.1548 162.714 55.9489 163.22 55.8068C163.732 55.66 164.272 55.5653 164.84 55.5227C165.455 55.4754 165.955 55.4162 166.338 55.3452C166.722 55.2741 167.008 55.1771 167.198 55.054C167.387 54.9309 167.501 54.7652 167.539 54.5568V54.5284C167.581 54.2443 167.505 54.0265 167.311 53.875C167.122 53.7235 166.857 53.6477 166.516 53.6477C166.147 53.6477 165.827 53.7282 165.557 53.8892C165.292 54.0502 165.11 54.3011 165.01 54.642H161.402C161.554 53.9792 161.864 53.3684 162.333 52.8097C162.806 52.2462 163.434 51.7964 164.215 51.4602C165.001 51.1193 165.938 50.9489 167.027 50.9489C167.804 50.9489 168.486 51.0412 169.073 51.2259C169.66 51.4058 170.145 51.6591 170.529 51.9858C170.917 52.3078 171.189 52.6866 171.345 53.1222C171.506 53.553 171.544 54.0218 171.459 54.5284L170.209 62H166.544L166.8 60.4659H166.715C166.431 60.8731 166.111 61.2022 165.756 61.4531C165.406 61.7041 165.022 61.8864 164.605 62C164.193 62.1136 163.751 62.1705 163.277 62.1705ZM164.982 59.6989C165.275 59.6989 165.564 59.6373 165.848 59.5142C166.132 59.3911 166.376 59.2135 166.58 58.9815C166.783 58.7495 166.914 58.4678 166.97 58.1364L167.112 57.2273C167.008 57.2699 166.892 57.3101 166.764 57.348C166.641 57.3812 166.511 57.4143 166.374 57.4474C166.241 57.4806 166.099 57.5114 165.948 57.5398C165.801 57.5682 165.649 57.5966 165.493 57.625C165.181 57.6723 164.918 57.7505 164.705 57.8594C164.492 57.9635 164.326 58.0938 164.208 58.25C164.089 58.4015 164.016 58.572 163.987 58.7614C163.945 59.0597 164.014 59.2917 164.193 59.4574C164.378 59.6184 164.641 59.6989 164.982 59.6989ZM183.247 54.642H179.724C179.743 54.4148 179.703 54.2206 179.604 54.0597C179.504 53.8987 179.364 53.7756 179.185 53.6903C179.009 53.6051 178.811 53.5625 178.588 53.5625C178.2 53.5625 177.847 53.6501 177.53 53.8253C177.213 53.9957 177.035 54.2206 176.997 54.5C176.973 54.6089 177.009 54.7107 177.104 54.8054C177.198 54.9001 177.447 54.9877 177.849 55.0682L180.008 55.4659C181.088 55.6648 181.874 56.027 182.366 56.5526C182.864 57.0734 183.043 57.7623 182.906 58.6193C182.778 59.3627 182.452 60.0019 181.926 60.5369C181.4 61.072 180.733 61.4839 179.923 61.7727C179.118 62.0568 178.228 62.1989 177.253 62.1989C175.534 62.1989 174.246 61.8556 173.389 61.169C172.537 60.4825 172.149 59.5852 172.224 58.4773H176.031C176.041 58.8324 176.159 59.0999 176.386 59.2798C176.618 59.455 176.926 59.5473 177.31 59.5568C177.726 59.571 178.091 59.4882 178.403 59.3082C178.716 59.1236 178.891 58.8939 178.929 58.6193C178.943 58.4631 178.874 58.3447 178.723 58.2642C178.576 58.1837 178.294 58.1032 177.878 58.0227L176.003 57.6818C174.923 57.4877 174.137 57.0994 173.645 56.517C173.152 55.9299 172.982 55.1818 173.133 54.2727C173.257 53.5483 173.55 52.9399 174.014 52.4474C174.483 51.955 175.098 51.5833 175.861 51.3324C176.623 51.0767 177.504 50.9489 178.503 50.9489C180.136 50.9489 181.372 51.2779 182.21 51.9361C183.053 52.5895 183.399 53.4915 183.247 54.642ZM189.039 62.1989C187.874 62.1989 186.908 61.9763 186.141 61.5312C185.374 61.0814 184.834 60.4375 184.522 59.5994C184.209 58.7566 184.153 57.7481 184.351 56.5739C184.541 55.447 184.931 54.4621 185.523 53.6193C186.12 52.7765 186.87 52.1207 187.775 51.652C188.684 51.1832 189.702 50.9489 190.829 50.9489C191.653 50.9489 192.375 51.0767 192.995 51.3324C193.62 51.5881 194.129 51.9598 194.522 52.4474C194.915 52.9351 195.18 53.5246 195.317 54.2159C195.459 54.9025 195.459 55.679 195.317 56.5455L195.175 57.4545H185.431L185.772 55.2955H191.908C191.956 54.983 191.925 54.7083 191.816 54.4716C191.712 54.2301 191.544 54.0431 191.312 53.9105C191.084 53.7732 190.81 53.7045 190.488 53.7045C190.166 53.7045 189.863 53.7732 189.579 53.9105C189.299 54.0478 189.06 54.2396 188.861 54.4858C188.667 54.732 188.537 55.0208 188.471 55.3523L188.045 57.625C187.988 57.9754 188.009 58.2879 188.109 58.5625C188.208 58.8371 188.381 59.0526 188.627 59.2088C188.873 59.3651 189.19 59.4432 189.579 59.4432C189.844 59.4432 190.095 59.4077 190.332 59.3366C190.573 59.2609 190.786 59.152 190.971 59.0099C191.16 58.8632 191.312 58.6856 191.425 58.4773H195.005C194.749 59.2348 194.344 59.893 193.79 60.4517C193.241 61.0057 192.564 61.4366 191.759 61.7443C190.959 62.0473 190.052 62.1989 189.039 62.1989Z" fill="white" fill-opacity="0.3"/>
<rect x="85.6445" y="110.645" width="85.645" height="33.6445" rx="1" transform="rotate(-180 85.6445 110.645)" fill="white" fill-opacity="0.3"/>
<path d="M9.02841 101L11.4432 86.4545H21.9261L21.3864 89.6364H14.8523L14.4545 92.1364H20.4489L19.9091 95.3182H13.9148L13.517 97.8182H20.0227L19.483 101H9.02841ZM36.4698 86.4545L34.055 101H30.7596L26.7823 93.358H26.6971L25.4187 101H21.4698L23.8846 86.4545H27.2369L31.1573 94.0682H31.271L32.521 86.4545H36.4698ZM37.4002 89.6364L37.94 86.4545H50.582L50.0423 89.6364H45.6673L43.7923 101H39.9002L41.7752 89.6364H37.4002ZM49.6534 101L52.0682 86.4545H62.5511L62.0114 89.6364H55.4773L55.0795 92.1364H61.0739L60.5341 95.3182H54.5398L54.142 97.8182H60.6477L60.108 101H49.6534ZM62.0948 101L64.5096 86.4545H70.788C71.8675 86.4545 72.779 86.651 73.5224 87.044C74.2657 87.437 74.8008 88.0028 75.1275 88.7415C75.4542 89.4801 75.5323 90.3655 75.3619 91.3977C75.1914 92.4394 74.815 93.3177 74.2326 94.0327C73.6549 94.7429 72.9187 95.2827 72.0238 95.652C71.1336 96.0166 70.1346 96.1989 69.0266 96.1989H65.2766L65.788 93.1307H68.7425C69.2066 93.1307 69.6138 93.0739 69.9641 92.9602C70.3145 92.8419 70.5986 92.6572 70.8164 92.4062C71.0342 92.1506 71.1763 91.8144 71.2425 91.3977C71.3088 90.9811 71.2757 90.6425 71.1431 90.3821C71.0105 90.117 70.7904 89.9228 70.4826 89.7997C70.1748 89.6719 69.7937 89.608 69.3391 89.608H67.9471L66.0437 101H62.0948ZM71.7255 94.3239L74.2539 101H69.9641L67.521 94.3239H71.7255Z" fill="#121212"/>
<path d="M110.517 90.6453C110.56 90.1766 110.446 89.8096 110.176 89.5445C109.906 89.2746 109.452 89.1396 108.812 89.1396C108.405 89.1396 108.064 89.187 107.79 89.2817C107.52 89.3764 107.309 89.5066 107.158 89.6723C107.011 89.838 106.919 90.0298 106.881 90.2476C106.838 90.4181 106.84 90.5743 106.888 90.7163C106.94 90.8537 107.037 90.9791 107.179 91.0928C107.326 91.2064 107.518 91.3082 107.754 91.3982C107.996 91.4881 108.282 91.5686 108.614 91.6396L109.75 91.8953C110.527 92.0658 111.178 92.2907 111.703 92.57C112.233 92.8447 112.65 93.1714 112.953 93.5502C113.256 93.9289 113.455 94.3527 113.55 94.8215C113.649 95.2902 113.652 95.8016 113.557 96.3556C113.396 97.312 113.024 98.1217 112.442 98.7845C111.859 99.4474 111.099 99.9517 110.162 100.297C109.224 100.643 108.14 100.816 106.909 100.816C105.65 100.816 104.58 100.629 103.699 100.255C102.823 99.8759 102.188 99.2983 101.795 98.5217C101.407 97.7405 101.313 96.7438 101.511 95.5317H105.261C105.205 95.9768 105.252 96.3508 105.403 96.6538C105.555 96.9569 105.799 97.1865 106.135 97.3428C106.471 97.499 106.89 97.5771 107.392 97.5771C107.818 97.5771 108.183 97.5251 108.486 97.4209C108.789 97.3167 109.028 97.1723 109.203 96.9877C109.378 96.803 109.485 96.5923 109.523 96.3556C109.561 96.1377 109.523 95.9436 109.409 95.7732C109.295 95.6027 109.089 95.4488 108.791 95.3115C108.493 95.1742 108.083 95.0487 107.562 94.9351L106.17 94.6226C104.935 94.3385 104.002 93.8698 103.372 93.2163C102.742 92.5629 102.52 91.6681 102.705 90.5317C102.856 89.6037 103.237 88.794 103.848 88.1027C104.464 87.4067 105.245 86.8669 106.192 86.4834C107.143 86.0951 108.197 85.901 109.352 85.901C110.527 85.901 111.509 86.0975 112.3 86.4905C113.095 86.8835 113.666 87.4351 114.011 88.1453C114.362 88.8556 114.456 89.6889 114.295 90.6453H110.517ZM119.604 100.844C118.44 100.844 117.474 100.622 116.707 100.177C115.94 99.7268 115.4 99.0828 115.087 98.2448C114.775 97.402 114.718 96.3934 114.917 95.2192C115.106 94.0923 115.497 93.1074 116.089 92.2646C116.685 91.4218 117.436 90.7661 118.34 90.2973C119.249 89.8286 120.267 89.5942 121.394 89.5942C122.218 89.5942 122.94 89.722 123.56 89.9777C124.185 90.2334 124.694 90.6051 125.087 91.0928C125.48 91.5805 125.746 92.1699 125.883 92.8612C126.025 93.5478 126.025 94.3243 125.883 95.1908L125.741 96.0999H115.996L116.337 93.9408H122.474C122.521 93.6283 122.49 93.3537 122.381 93.1169C122.277 92.8754 122.109 92.6884 121.877 92.5558C121.65 92.4185 121.375 92.3499 121.053 92.3499C120.731 92.3499 120.428 92.4185 120.144 92.5558C119.865 92.6931 119.626 92.8849 119.427 93.1311C119.233 93.3773 119.103 93.6662 119.036 93.9976L118.61 96.2703C118.553 96.6207 118.575 96.9332 118.674 97.2078C118.773 97.4824 118.946 97.6979 119.192 97.8541C119.439 98.0104 119.756 98.0885 120.144 98.0885C120.409 98.0885 120.66 98.053 120.897 97.982C121.138 97.9062 121.352 97.7973 121.536 97.6553C121.726 97.5085 121.877 97.3309 121.991 97.1226H125.57C125.315 97.8802 124.91 98.5383 124.356 99.097C123.807 99.651 123.129 100.082 122.325 100.39C121.524 100.693 120.618 100.844 119.604 100.844ZM132.909 86.0999L130.494 100.645H126.574L128.988 86.0999H132.909ZM137.69 100.844C136.526 100.844 135.56 100.622 134.793 100.177C134.026 99.7268 133.486 99.0828 133.173 98.2448C132.861 97.402 132.804 96.3934 133.003 95.2192C133.192 94.0923 133.583 93.1074 134.175 92.2646C134.771 91.4218 135.522 90.7661 136.426 90.2973C137.335 89.8286 138.353 89.5942 139.48 89.5942C140.304 89.5942 141.026 89.722 141.646 89.9777C142.271 90.2334 142.78 90.6051 143.173 91.0928C143.566 91.5805 143.831 92.1699 143.969 92.8612C144.111 93.5478 144.111 94.3243 143.969 95.1908L143.827 96.0999H134.082L134.423 93.9408H140.56C140.607 93.6283 140.576 93.3537 140.467 93.1169C140.363 92.8754 140.195 92.6884 139.963 92.5558C139.736 92.4185 139.461 92.3499 139.139 92.3499C138.817 92.3499 138.514 92.4185 138.23 92.5558C137.951 92.6931 137.712 92.8849 137.513 93.1311C137.319 93.3773 137.188 93.6662 137.122 93.9976L136.696 96.2703C136.639 96.6207 136.661 96.9332 136.76 97.2078C136.859 97.4824 137.032 97.6979 137.278 97.8541C137.525 98.0104 137.842 98.0885 138.23 98.0885C138.495 98.0885 138.746 98.053 138.983 97.982C139.224 97.9062 139.438 97.7973 139.622 97.6553C139.812 97.5085 139.963 97.3309 140.077 97.1226H143.656C143.401 97.8802 142.996 98.5383 142.442 99.097C141.893 99.651 141.215 100.082 140.411 100.39C139.61 100.693 138.704 100.844 137.69 100.844ZM149.887 100.844C148.703 100.844 147.728 100.61 146.961 100.141C146.194 99.6676 145.656 99.0094 145.348 98.1666C145.041 97.3191 144.981 96.3366 145.171 95.2192C145.351 94.1018 145.734 93.1217 146.321 92.2788C146.913 91.4313 147.671 90.7732 148.594 90.3044C149.522 89.8309 150.578 89.5942 151.762 89.5942C152.832 89.5942 153.724 89.7883 154.439 90.1766C155.159 90.5601 155.673 91.1046 155.98 91.8101C156.293 92.5109 156.373 93.3347 156.222 94.2817H152.586C152.628 93.7135 152.536 93.2779 152.309 92.9749C152.086 92.6718 151.762 92.5203 151.336 92.5203C150.985 92.5203 150.663 92.6198 150.37 92.8186C150.081 93.0127 149.832 93.3087 149.624 93.7064C149.42 94.0994 149.271 94.5942 149.176 95.1908C149.082 95.7874 149.07 96.2845 149.141 96.6823C149.217 97.0752 149.364 97.3712 149.581 97.57C149.804 97.7642 150.086 97.8612 150.426 97.8612C150.72 97.8612 150.99 97.7949 151.236 97.6624C151.487 97.5251 151.703 97.3262 151.882 97.0658C152.067 96.8006 152.207 96.4787 152.301 96.0999H155.938C155.758 97.0658 155.396 97.9038 154.851 98.6141C154.307 99.3243 153.613 99.8735 152.77 100.262C151.927 100.65 150.966 100.844 149.887 100.844ZM165.112 89.7362L164.629 92.5771H157.442L157.925 89.7362H165.112ZM159.743 87.1226H163.663L162.001 97.1368C161.978 97.2883 161.982 97.4162 162.016 97.5203C162.049 97.6198 162.115 97.6955 162.214 97.7476C162.319 97.7949 162.456 97.8186 162.626 97.8186C162.74 97.8186 162.88 97.8044 163.045 97.776C163.211 97.7429 163.337 97.7192 163.422 97.705L163.536 100.461C163.337 100.517 163.069 100.581 162.733 100.652C162.402 100.728 162.016 100.778 161.575 100.802C160.657 100.844 159.909 100.747 159.331 100.51C158.758 100.274 158.36 99.9043 158.138 99.4024C157.92 98.8958 157.882 98.2637 158.024 97.5061L159.743 87.1226Z" fill="white" fill-opacity="0.3"/>
</svg>
